<svg width="297" height="40" viewBox="0 0 297 40" fill="none" xmlns="http://www.w3.org/2000/svg">
<path d="M0.764 14.88C0.764 13.06 1.072 11.282 1.688 9.546C2.332 7.782 3.256 6.186 4.46 4.758C5.664 3.302 7.148 2.154 8.912 1.314C10.676 0.445998 12.678 0.0119981 14.918 0.0119981C17.578 0.0119981 19.846 0.627998 21.722 1.86C23.626 3.064 25.026 4.618 25.922 6.522L23.612 7.95C22.968 6.634 22.156 5.598 21.176 4.842C20.196 4.058 19.146 3.498 18.026 3.162C16.934 2.826 15.842 2.658 14.75 2.658C12.958 2.658 11.376 3.022 10.004 3.75C8.632 4.45 7.47 5.402 6.518 6.606C5.594 7.782 4.894 9.112 4.418 10.596C3.942 12.052 3.704 13.536 3.704 15.048C3.704 16.7 3.984 18.282 4.544 19.794C5.104 21.306 5.888 22.65 6.896 23.826C7.904 24.974 9.08 25.898 10.424 26.598C11.796 27.27 13.28 27.606 14.876 27.606C15.996 27.606 17.144 27.41 18.32 27.018C19.496 26.626 20.588 26.024 21.596 25.212C22.632 24.4 23.458 23.35 24.074 22.062L26.51 23.322C25.894 24.806 24.942 26.066 23.654 27.102C22.366 28.138 20.924 28.922 19.328 29.454C17.76 29.986 16.22 30.252 14.708 30.252C12.664 30.252 10.788 29.818 9.08 28.95C7.372 28.054 5.888 26.878 4.628 25.422C3.396 23.938 2.444 22.286 1.772 20.466C1.1 18.618 0.764 16.756 0.764 14.88ZM29.179 23.7C29.179 22.328 29.571 21.152 30.355 20.172C31.139 19.164 32.217 18.394 33.589 17.862C34.989 17.302 36.599 17.022 38.419 17.022C39.483 17.022 40.589 17.106 41.737 17.274C42.885 17.442 43.907 17.694 44.803 18.03V16.182C44.803 14.334 44.257 12.864 43.165 11.772C42.073 10.68 40.561 10.134 38.629 10.134C37.453 10.134 36.291 10.358 35.143 10.806C34.023 11.226 32.847 11.856 31.615 12.696L30.523 10.68C31.951 9.7 33.351 8.972 34.723 8.496C36.095 7.992 37.495 7.74 38.923 7.74C41.611 7.74 43.739 8.51 45.307 10.05C46.875 11.59 47.659 13.718 47.659 16.434V26.556C47.659 26.948 47.743 27.242 47.911 27.438C48.079 27.606 48.345 27.704 48.709 27.732V30C48.401 30.028 48.135 30.056 47.911 30.084C47.687 30.112 47.519 30.112 47.407 30.084C46.707 30.056 46.175 29.832 45.811 29.412C45.447 28.992 45.251 28.544 45.223 28.068L45.181 26.472C44.201 27.732 42.927 28.712 41.359 29.412C39.791 30.084 38.195 30.42 36.571 30.42C35.171 30.42 33.897 30.126 32.749 29.538C31.629 28.922 30.747 28.11 30.103 27.102C29.487 26.066 29.179 24.932 29.179 23.7ZM43.837 25.38C44.145 24.988 44.383 24.61 44.551 24.246C44.719 23.882 44.803 23.56 44.803 23.28V20.088C43.851 19.724 42.857 19.444 41.821 19.248C40.813 19.052 39.791 18.954 38.755 18.954C36.711 18.954 35.059 19.36 33.799 20.172C32.539 20.984 31.909 22.09 31.909 23.49C31.909 24.302 32.119 25.072 32.539 25.8C32.959 26.5 33.575 27.088 34.387 27.564C35.199 28.012 36.151 28.236 37.243 28.236C38.615 28.236 39.889 27.97 41.065 27.438C42.269 26.906 43.193 26.22 43.837 25.38ZM64.1656 28.95C63.9416 29.034 63.5916 29.188 63.1156 29.412C62.6396 29.636 62.0656 29.832 61.3936 30C60.7216 30.168 59.9936 30.252 59.2096 30.252C58.3976 30.252 57.6276 30.098 56.8996 29.79C56.1996 29.482 55.6396 29.02 55.2196 28.404C54.7996 27.76 54.5896 26.976 54.5896 26.052V10.386H51.5656V8.118H54.5896V0.725999H57.4456V8.118H62.4856V10.386H57.4456V25.254C57.5016 26.038 57.7816 26.626 58.2856 27.018C58.8176 27.41 59.4196 27.606 60.0916 27.606C60.8756 27.606 61.5896 27.48 62.2336 27.228C62.8776 26.948 63.2696 26.752 63.4096 26.64L64.1656 28.95ZM76.8148 30.42C75.2468 30.42 73.7908 30.126 72.4468 29.538C71.1028 28.922 69.9408 28.096 68.9608 27.06C67.9808 25.996 67.2108 24.778 66.6508 23.406C66.1188 22.034 65.8528 20.564 65.8528 18.996C65.8528 16.952 66.3148 15.076 67.2388 13.368C68.1908 11.66 69.4928 10.302 71.1448 9.294C72.7968 8.258 74.6728 7.74 76.7728 7.74C78.9288 7.74 80.8048 8.258 82.4008 9.294C84.0248 10.33 85.2988 11.702 86.2228 13.41C87.1468 15.09 87.6088 16.938 87.6088 18.954C87.6088 19.178 87.6088 19.402 87.6088 19.626C87.6088 19.822 87.5948 19.976 87.5668 20.088H68.8348C68.9748 21.656 69.4088 23.056 70.1368 24.288C70.8928 25.492 71.8588 26.458 73.0348 27.186C74.2388 27.886 75.5408 28.236 76.9408 28.236C78.3688 28.236 79.7128 27.872 80.9728 27.144C82.2608 26.416 83.1568 25.464 83.6608 24.288L86.1388 24.96C85.6908 25.996 85.0048 26.934 84.0808 27.774C83.1568 28.614 82.0648 29.272 80.8048 29.748C79.5728 30.196 78.2428 30.42 76.8148 30.42ZM68.7508 18.03H84.9208C84.8088 16.434 84.3748 15.034 83.6188 13.83C82.8908 12.626 81.9248 11.688 80.7208 11.016C79.5448 10.316 78.2428 9.966 76.8148 9.966C75.3868 9.966 74.0848 10.316 72.9088 11.016C71.7328 11.688 70.7668 12.64 70.0108 13.872C69.2828 15.076 68.8628 16.462 68.7508 18.03ZM100.793 30.294C99.3092 30.294 97.9372 29.986 96.6772 29.37C95.4172 28.754 94.3252 27.928 93.4012 26.892C92.5052 25.828 91.8052 24.624 91.3012 23.28C90.7972 21.936 90.5452 20.55 90.5452 19.122C90.5452 17.582 90.7832 16.14 91.2592 14.796C91.7632 13.424 92.4632 12.206 93.3592 11.142C94.2832 10.078 95.3612 9.252 96.5932 8.664C97.8252 8.048 99.1972 7.74 100.709 7.74C102.585 7.74 104.209 8.216 105.581 9.168C106.981 10.12 108.157 11.296 109.109 12.696V8.118H111.671V30.084C111.671 32.1 111.181 33.794 110.201 35.166C109.249 36.566 107.947 37.616 106.295 38.316C104.671 39.016 102.893 39.366 100.961 39.366C98.4692 39.366 96.4532 38.918 94.9132 38.022C93.3732 37.126 92.1132 35.922 91.1332 34.41L92.8972 33.024C93.7652 34.396 94.9132 35.418 96.3412 36.09C97.7972 36.762 99.3372 37.098 100.961 37.098C102.389 37.098 103.691 36.832 104.867 36.3C106.071 35.796 107.023 35.026 107.723 33.99C108.451 32.954 108.815 31.652 108.815 30.084V25.758C107.975 27.13 106.827 28.236 105.371 29.076C103.915 29.888 102.389 30.294 100.793 30.294ZM101.591 27.9C102.459 27.9 103.285 27.746 104.069 27.438C104.881 27.13 105.623 26.724 106.295 26.22C106.967 25.688 107.527 25.1 107.975 24.456C108.423 23.812 108.703 23.154 108.815 22.482V15.72C108.395 14.656 107.793 13.718 107.009 12.906C106.225 12.066 105.329 11.422 104.321 10.974C103.341 10.498 102.319 10.26 101.255 10.26C100.023 10.26 98.9172 10.526 97.9372 11.058C96.9852 11.562 96.1732 12.248 95.5012 13.116C94.8572 13.956 94.3532 14.908 93.9892 15.972C93.6252 17.036 93.4432 18.1 93.4432 19.164C93.4432 20.34 93.6532 21.46 94.0732 22.524C94.4932 23.56 95.0672 24.498 95.7952 25.338C96.5512 26.15 97.4192 26.78 98.3992 27.228C99.4072 27.676 100.471 27.9 101.591 27.9ZM127.302 30.42C125.734 30.42 124.278 30.126 122.934 29.538C121.618 28.922 120.47 28.096 119.49 27.06C118.538 25.996 117.796 24.792 117.264 23.448C116.732 22.076 116.466 20.634 116.466 19.122C116.466 17.554 116.732 16.098 117.264 14.754C117.796 13.382 118.552 12.178 119.532 11.142C120.512 10.078 121.66 9.252 122.976 8.664C124.32 8.048 125.776 7.74 127.344 7.74C128.912 7.74 130.354 8.048 131.67 8.664C132.986 9.252 134.134 10.078 135.114 11.142C136.094 12.178 136.85 13.382 137.382 14.754C137.914 16.098 138.18 17.554 138.18 19.122C138.18 20.634 137.914 22.076 137.382 23.448C136.85 24.792 136.094 25.996 135.114 27.06C134.162 28.096 133.014 28.922 131.67 29.538C130.354 30.126 128.898 30.42 127.302 30.42ZM119.364 19.164C119.364 20.788 119.714 22.272 120.414 23.616C121.142 24.932 122.108 25.982 123.312 26.766C124.516 27.522 125.846 27.9 127.302 27.9C128.758 27.9 130.088 27.508 131.292 26.724C132.496 25.94 133.462 24.876 134.19 23.532C134.918 22.16 135.282 20.676 135.282 19.08C135.282 17.456 134.918 15.972 134.19 14.628C133.462 13.284 132.496 12.22 131.292 11.436C130.088 10.652 128.758 10.26 127.302 10.26C125.846 10.26 124.516 10.666 123.312 11.478C122.136 12.29 121.184 13.368 120.456 14.712C119.728 16.028 119.364 17.512 119.364 19.164ZM153.877 10.638C151.973 10.694 150.293 11.226 148.837 12.234C147.409 13.242 146.401 14.628 145.813 16.392V30H142.957V8.118H145.645V13.368C146.401 11.828 147.395 10.582 148.627 9.63C149.887 8.678 151.217 8.146 152.617 8.034C152.897 8.006 153.135 7.992 153.331 7.992C153.555 7.992 153.737 8.006 153.877 8.034V10.638ZM158.941 36.72C159.333 36.748 159.711 36.762 160.075 36.762C160.439 36.79 160.705 36.776 160.873 36.72C161.209 36.664 161.531 36.468 161.839 36.132C162.147 35.796 162.511 35.152 162.931 34.2C163.351 33.248 163.939 31.848 164.695 30L155.161 8.118H158.185L166.207 27.06L173.599 8.118H176.455L165.115 36.342C164.919 36.874 164.625 37.364 164.233 37.812C163.841 38.288 163.351 38.652 162.763 38.904C162.203 39.184 161.503 39.338 160.663 39.366C160.411 39.394 160.145 39.394 159.865 39.366C159.613 39.366 159.305 39.338 158.941 39.282V36.72ZM208.398 30H205.542V17.778C205.542 15.202 205.164 13.326 204.408 12.15C203.652 10.946 202.462 10.344 200.838 10.344C199.718 10.344 198.612 10.624 197.52 11.184C196.428 11.716 195.462 12.458 194.622 13.41C193.81 14.334 193.222 15.398 192.858 16.602V30H190.002V8.118H192.606V13.074C193.194 12.01 193.964 11.086 194.916 10.302C195.868 9.49 196.946 8.86 198.15 8.412C199.354 7.964 200.6 7.74 201.888 7.74C203.092 7.74 204.114 7.964 204.954 8.412C205.794 8.86 206.466 9.504 206.97 10.344C207.474 11.156 207.838 12.15 208.062 13.326C208.286 14.474 208.398 15.762 208.398 17.19V30ZM212.724 23.7C212.724 22.328 213.116 21.152 213.9 20.172C214.684 19.164 215.762 18.394 217.134 17.862C218.534 17.302 220.144 17.022 221.964 17.022C223.028 17.022 224.134 17.106 225.282 17.274C226.43 17.442 227.452 17.694 228.348 18.03V16.182C228.348 14.334 227.802 12.864 226.71 11.772C225.618 10.68 224.106 10.134 222.174 10.134C220.998 10.134 219.836 10.358 218.688 10.806C217.568 11.226 216.392 11.856 215.16 12.696L214.068 10.68C215.496 9.7 216.896 8.972 218.268 8.496C219.64 7.992 221.04 7.74 222.468 7.74C225.156 7.74 227.284 8.51 228.852 10.05C230.42 11.59 231.204 13.718 231.204 16.434V26.556C231.204 26.948 231.288 27.242 231.456 27.438C231.624 27.606 231.89 27.704 232.254 27.732V30C231.946 30.028 231.68 30.056 231.456 30.084C231.232 30.112 231.064 30.112 230.952 30.084C230.252 30.056 229.72 29.832 229.356 29.412C228.992 28.992 228.796 28.544 228.768 28.068L228.726 26.472C227.746 27.732 226.472 28.712 224.904 29.412C223.336 30.084 221.74 30.42 220.116 30.42C218.716 30.42 217.442 30.126 216.294 29.538C215.174 28.922 214.292 28.11 213.648 27.102C213.032 26.066 212.724 24.932 212.724 23.7ZM227.382 25.38C227.69 24.988 227.928 24.61 228.096 24.246C228.264 23.882 228.348 23.56 228.348 23.28V20.088C227.396 19.724 226.402 19.444 225.366 19.248C224.358 19.052 223.336 18.954 222.3 18.954C220.256 18.954 218.604 19.36 217.344 20.172C216.084 20.984 215.454 22.09 215.454 23.49C215.454 24.302 215.664 25.072 216.084 25.8C216.504 26.5 217.12 27.088 217.932 27.564C218.744 28.012 219.696 28.236 220.788 28.236C222.16 28.236 223.434 27.97 224.61 27.438C225.814 26.906 226.738 26.22 227.382 25.38ZM269.925 30H267.069V17.778C267.069 15.23 266.663 13.354 265.851 12.15C265.039 10.946 263.835 10.344 262.239 10.344C260.587 10.344 259.103 10.932 257.787 12.108C256.499 13.284 255.589 14.796 255.057 16.644V30H252.201V17.778C252.201 15.202 251.809 13.326 251.025 12.15C250.241 10.946 249.037 10.344 247.413 10.344C245.789 10.344 244.319 10.918 243.003 12.066C241.687 13.214 240.763 14.726 240.231 16.602V30H237.375V8.118H239.979V13.074C240.903 11.366 242.079 10.05 243.507 9.126C244.963 8.202 246.573 7.74 248.337 7.74C250.157 7.74 251.627 8.258 252.747 9.294C253.867 10.33 254.553 11.688 254.805 13.368C255.813 11.52 257.017 10.12 258.417 9.168C259.845 8.216 261.455 7.74 263.247 7.74C264.479 7.74 265.515 7.964 266.355 8.412C267.223 8.86 267.909 9.504 268.413 10.344C268.945 11.156 269.323 12.15 269.547 13.326C269.799 14.474 269.925 15.762 269.925 17.19V30ZM285.42 30.42C283.852 30.42 282.396 30.126 281.052 29.538C279.708 28.922 278.546 28.096 277.566 27.06C276.586 25.996 275.816 24.778 275.256 23.406C274.724 22.034 274.458 20.564 274.458 18.996C274.458 16.952 274.92 15.076 275.844 13.368C276.796 11.66 278.098 10.302 279.75 9.294C281.402 8.258 283.278 7.74 285.378 7.74C287.534 7.74 289.41 8.258 291.006 9.294C292.63 10.33 293.904 11.702 294.828 13.41C295.752 15.09 296.214 16.938 296.214 18.954C296.214 19.178 296.214 19.402 296.214 19.626C296.214 19.822 296.2 19.976 296.172 20.088H277.44C277.58 21.656 278.014 23.056 278.742 24.288C279.498 25.492 280.464 26.458 281.64 27.186C282.844 27.886 284.146 28.236 285.546 28.236C286.974 28.236 288.318 27.872 289.578 27.144C290.866 26.416 291.762 25.464 292.266 24.288L294.744 24.96C294.296 25.996 293.61 26.934 292.686 27.774C291.762 28.614 290.67 29.272 289.41 29.748C288.178 30.196 286.848 30.42 285.42 30.42ZM277.356 18.03H293.526C293.414 16.434 292.98 15.034 292.224 13.83C291.496 12.626 290.53 11.688 289.326 11.016C288.15 10.316 286.848 9.966 285.42 9.966C283.992 9.966 282.69 10.316 281.514 11.016C280.338 11.688 279.372 12.64 278.616 13.872C277.888 15.076 277.468 16.462 277.356 18.03Z" fill="#1D1F22"/>
</svg>
