<svg width="97" height="56" viewBox="0 0 97 56" fill="none" xmlns="http://www.w3.org/2000/svg">
<rect y="54" width="16" height="2" fill="#5ECE7B"/>
<path d="M21.687 7.688H23.367L24.775 11.544L26.199 7.688H27.879L25.927 12.744L27.623 16.92L31.159 7.64H33.127L28.471 19H26.919L24.791 13.912L22.647 19H21.079L16.439 7.64H18.391L21.943 16.92L23.639 12.744L21.687 7.688ZM38.7656 19.08C37.9443 19.08 37.203 18.92 36.5416 18.6C35.8803 18.28 35.3096 17.848 34.8296 17.304C34.3496 16.7493 33.9763 16.1307 33.7096 15.448C33.4536 14.7547 33.3256 14.0453 33.3256 13.32C33.3256 12.5627 33.4643 11.8427 33.7416 11.16C34.019 10.4667 34.403 9.85333 34.8936 9.32C35.3843 8.776 35.9603 8.34933 36.6216 8.04C37.2936 7.72 38.019 7.56 38.7976 7.56C39.6083 7.56 40.3443 7.72533 41.0056 8.056C41.6776 8.38667 42.2483 8.82933 42.7176 9.384C43.1976 9.93867 43.5656 10.5573 43.8216 11.24C44.0883 11.9227 44.2216 12.6213 44.2216 13.336C44.2216 14.0933 44.083 14.8187 43.8056 15.512C43.539 16.1947 43.1603 16.808 42.6696 17.352C42.179 17.8853 41.5976 18.3067 40.9256 18.616C40.2643 18.9253 39.5443 19.08 38.7656 19.08ZM35.1496 13.32C35.1496 13.8533 35.235 14.3707 35.4056 14.872C35.5763 15.3733 35.8163 15.8213 36.1256 16.216C36.4456 16.6 36.8296 16.904 37.2776 17.128C37.7256 17.352 38.227 17.464 38.7816 17.464C39.3576 17.464 39.8696 17.3467 40.3176 17.112C40.7656 16.8773 41.139 16.5627 41.4376 16.168C41.747 15.7627 41.9816 15.3147 42.1416 14.824C42.3016 14.3227 42.3816 13.8213 42.3816 13.32C42.3816 12.7867 42.2963 12.2747 42.1256 11.784C41.9656 11.2827 41.7256 10.84 41.4056 10.456C41.0856 10.0613 40.7016 9.752 40.2536 9.528C39.8163 9.304 39.3256 9.192 38.7816 9.192C38.2056 9.192 37.6936 9.30933 37.2456 9.544C36.7976 9.77867 36.419 10.0933 36.1096 10.488C35.8003 10.8827 35.5603 11.3253 35.3896 11.816C35.2296 12.3067 35.1496 12.808 35.1496 13.32ZM55.6289 19V10.904L52.2849 17.048H51.2289L47.8689 10.904V19H46.0769V7.64H47.9969L51.7569 14.584L55.5169 7.64H57.4369V19H55.6289ZM67.7908 17.416V19H59.9988V7.64H67.6468V9.224H61.7908V12.456H66.8628V13.944H61.7908V17.416H67.7908ZM71.4314 10.968V19H69.6394V7.64H71.1114L77.5434 15.848V7.656H79.3514V19H77.7834L71.4314 10.968Z" fill="#5ECE7B"/>
<rect x="16" y="54" width="65" height="2" fill="#5ECE7B"/>
<rect x="81" y="54" width="16" height="2" fill="#5ECE7B"/>
</svg>
